HIERARCHY
ROOT Hips
{
	OFFSET -14.64140 90.27770 -84.91600
	CHANNELS 6 Xposition Yposition Zposition Zrotation Xrotation Yrotation
	JOINT Spine
	{
		OFFSET 0.00000 13.20850 -1.60436
		CHANNELS 3 Zrotation Xrotation Yrotation
		JOINT Spine1
		{
			OFFSET 0.00000 8.61716 0.00000
			CHANNELS 3 Zrotation Xrotation Yrotation
			JOINT Spine2
			{
				OFFSET 0.00000 8.61717 0.00000
				CHANNELS 3 Zrotation Xrotation Yrotation
				JOINT Spine3
				{
					OFFSET 0.00000 8.61717 0.00000
					CHANNELS 3 Zrotation Xrotation Yrotation
					JOINT Neck
					{
						OFFSET 0.00000 11.07920 1.10792
						CHANNELS 3 Zrotation Xrotation Yrotation
						JOINT Neck1
						{
							OFFSET 0.00000 7.08032 0.00000
							CHANNELS 3 Zrotation Xrotation Yrotation
							JOINT Head
							{
								OFFSET 0.00000 7.08031 0.00000
								CHANNELS 3 Zrotation Xrotation Yrotation
								End site
								{
									OFFSET 0.00000 0.00000 0.00000
								}
							}
						}
					}
					JOINT RightShoulder
					{
						OFFSET -0.01000 7.91373 5.19711
						CHANNELS 3 Zrotation Xrotation Yrotation
						JOINT RightArm
						{
							OFFSET -18.41580 0.00000 0.00000
							CHANNELS 3 Zrotation Xrotation Yrotation
							JOINT RightForeArm
							{
								OFFSET -29.11090 0.00000 0.00000
								CHANNELS 3 Zrotation Xrotation Yrotation
								JOINT RightHand
								{
									OFFSET -24.65040 0.00000 0.00000
									CHANNELS 3 Zrotation Xrotation Yrotation
									JOINT RightHandThumb1
									{
										OFFSET -5.35114 -0.85590 3.97906
										CHANNELS 3 Zrotation Xrotation Yrotation
										JOINT RightHandThumb2
										{
											OFFSET -4.52789 0.00000 0.00000
											CHANNELS 3 Zrotation Xrotation Yrotation
											JOINT RightHandThumb3
											{
												OFFSET -2.46976 0.00000 0.00000
												CHANNELS 3 Zrotation Xrotation Yrotation
												End site
												{
													OFFSET 0.00000 0.00000 0.00000
												}
											}
										}
									}
									JOINT RightHandIndex1
									{
										OFFSET -14.26970 0.00000 2.88139
										CHANNELS 3 Zrotation Xrotation Yrotation
										JOINT RightHandIndex2
										{
											OFFSET -5.48836 0.00000 0.00000
											CHANNELS 3 Zrotation Xrotation Yrotation
											JOINT RightHandIndex3
											{
												OFFSET -3.01859 0.00000 0.00000
												CHANNELS 3 Zrotation Xrotation Yrotation
												End site
												{
													OFFSET 0.00000 0.00000 0.00000
												}
											}
										}
									}
									JOINT RightHandMiddle1
									{
										OFFSET -14.26970 0.00000 -0.09147
										CHANNELS 3 Zrotation Xrotation Yrotation
										JOINT RightHandMiddle2
										{
											OFFSET -6.17441 0.00000 0.00000
											CHANNELS 3 Zrotation Xrotation Yrotation
											JOINT RightHandMiddle3
											{
												OFFSET -3.56743 0.00000 0.00000
												CHANNELS 3 Zrotation Xrotation Yrotation
												End site
												{
													OFFSET 0.00000 0.00000 0.00000
												}
											}
										}
									}
									JOINT RightHandRing1
									{
										OFFSET -12.69180 0.00000 -3.06433
										CHANNELS 3 Zrotation Xrotation Yrotation
										JOINT RightHandRing2
										{
											OFFSET -5.62556 0.00000 0.00000
											CHANNELS 3 Zrotation Xrotation Yrotation
											JOINT RightHandRing3
											{
												OFFSET -3.56744 0.00000 0.00000
												CHANNELS 3 Zrotation Xrotation Yrotation
												End site
												{
													OFFSET 0.00000 0.00000 0.00000
												}
											}
										}
									}
									JOINT RightHandPinky1
									{
										OFFSET -11.11390 0.00000 -6.03719
										CHANNELS 3 Zrotation Xrotation Yrotation
										JOINT RightHandPinky2
										{
											OFFSET -4.52789 0.00000 0.00000
											CHANNELS 3 Zrotation Xrotation Yrotation
											JOINT RightHandPinky3
											{
												OFFSET -2.46976 0.00000 0.00000
												CHANNELS 3 Zrotation Xrotation Yrotation
												End site
												{
													OFFSET 0.00000 0.00000 0.00000
												}
											}
										}
									}
								}
							}
						}
					}
					JOINT LeftShoulder
					{
						OFFSET 0.01000 7.91373 5.19711
						CHANNELS 3 Zrotation Xrotation Yrotation
						JOINT LeftArm
						{
							OFFSET 18.41580 0.00000 0.00000
							CHANNELS 3 Zrotation Xrotation Yrotation
							JOINT LeftForeArm
							{
								OFFSET 29.11090 0.00000 0.00000
								CHANNELS 3 Zrotation Xrotation Yrotation
								JOINT LeftHand
								{
									OFFSET 24.65040 0.00000 0.00000
									CHANNELS 3 Zrotation Xrotation Yrotation
									JOINT LeftHandThumb1
									{
										OFFSET 5.35114 -0.85590 3.97906
										CHANNELS 3 Zrotation Xrotation Yrotation
										JOINT LeftHandThumb2
										{
											OFFSET 4.52789 0.00000 0.00000
											CHANNELS 3 Zrotation Xrotation Yrotation
											JOINT LeftHandThumb3
											{
												OFFSET 2.46977 0.00000 0.00000
												CHANNELS 3 Zrotation Xrotation Yrotation
												End site
												{
													OFFSET 0.00000 0.00000 0.00000
												}
											}
										}
									}
									JOINT LeftHandIndex1
									{
										OFFSET 14.26970 0.00000 2.88139
										CHANNELS 3 Zrotation Xrotation Yrotation
										JOINT LeftHandIndex2
										{
											OFFSET 5.48836 0.00000 0.00000
											CHANNELS 3 Zrotation Xrotation Yrotation
											JOINT LeftHandIndex3
											{
												OFFSET 3.01859 0.00000 0.00000
												CHANNELS 3 Zrotation Xrotation Yrotation
												End site
												{
													OFFSET 0.00000 0.00000 0.00000
												}
											}
										}
									}
									JOINT LeftHandMiddle1
									{
										OFFSET 14.26970 0.00000 -0.09147
										CHANNELS 3 Zrotation Xrotation Yrotation
										JOINT LeftHandMiddle2
										{
											OFFSET 6.17440 0.00000 0.00000
											CHANNELS 3 Zrotation Xrotation Yrotation
											JOINT LeftHandMiddle3
											{
												OFFSET 3.56744 0.00000 0.00000
												CHANNELS 3 Zrotation Xrotation Yrotation
												End site
												{
													OFFSET 0.00000 0.00000 0.00000
												}
											}
										}
									}
									JOINT LeftHandRing1
									{
										OFFSET 12.69180 0.00000 -3.06433
										CHANNELS 3 Zrotation Xrotation Yrotation
										JOINT LeftHandRing2
										{
											OFFSET 5.62556 0.00000 0.00000
											CHANNELS 3 Zrotation Xrotation Yrotation
											JOINT LeftHandRing3
											{
												OFFSET 3.56744 0.00000 0.00000
												CHANNELS 3 Zrotation Xrotation Yrotation
												End site
												{
													OFFSET 0.00000 0.00000 0.00000
												}
											}
										}
									}
									JOINT LeftHandPinky1
									{
										OFFSET 11.11390 0.00000 -6.03719
										CHANNELS 3 Zrotation Xrotation Yrotation
										JOINT LeftHandPinky2
										{
											OFFSET 4.52789 0.00000 0.00000
											CHANNELS 3 Zrotation Xrotation Yrotation
											JOINT LeftHandPinky3
											{
												OFFSET 2.46976 0.00000 0.00000
												CHANNELS 3 Zrotation Xrotation Yrotation
												End site
												{
													OFFSET 0.00000 0.00000 0.00000
												}
											}
										}
									}
								}
							}
						}
					}
					JOINT pCube4
					{
						OFFSET 0.00000 10.91090 1.10792
						CHANNELS 3 Zrotation Xrotation Yrotation
						End site
						{
							OFFSET 0.00000 0.00000 0.00000
						}
					}
				}
			}
		}
	}
	JOINT RightUpLeg
	{
		OFFSET -9.98441 0.00000 0.00000
		CHANNELS 3 Zrotation Xrotation Yrotation
		JOINT RightLeg
		{
			OFFSET 0.00000 -42.11790 0.00000
			CHANNELS 3 Zrotation Xrotation Yrotation
			JOINT RightFoot
			{
				OFFSET 0.00000 -45.00020 -0.00001
				CHANNELS 3 Zrotation Xrotation Yrotation
				JOINT RightForeFoot
				{
					OFFSET 0.00000 -3.74820 0.00000
					CHANNELS 3 Zrotation Xrotation Yrotation
					JOINT RightToeBase
					{
						OFFSET 0.00000 0.06325 14.43120
						CHANNELS 3 Zrotation Xrotation Yrotation
						End site
						{
							OFFSET 0.00000 0.00000 0.00000
						}
					}
				}
			}
		}
	}
	JOINT LeftUpLeg
	{
		OFFSET 9.98441 0.00000 0.00000
		CHANNELS 3 Zrotation Xrotation Yrotation
		JOINT LeftLeg
		{
			OFFSET 0.00000 -42.11800 0.00000
			CHANNELS 3 Zrotation Xrotation Yrotation
			JOINT LeftFoot
			{
				OFFSET 0.00000 -45.00070 0.00000
				CHANNELS 3 Zrotation Xrotation Yrotation
				JOINT LeftForeFoot
				{
					OFFSET 0.00000 -3.74824 0.00000
					CHANNELS 3 Zrotation Xrotation Yrotation
					JOINT LeftToeBase
					{
						OFFSET 0.00000 0.06325 14.43110
						CHANNELS 3 Zrotation Xrotation Yrotation
						End site
						{
							OFFSET 0.00000 0.00000 0.00000
						}
					}
				}
			}
		}
	}
}
MOTION
Frames: 4
Frame Time: 0.050000
0.007338398396027768 0.03921863878238005 0.007246448124920708 -0.03648584688870491 0.048083864215952225 0.007932557568865298 -4.740630729883126 0.8630234298326805 -0.47385485717636283 -0.9733719151984636 3.3193707653758264 0.3498239794019973 -1.1571909441776802 -1.7711949672468978 -1.222950481284244 -0.5894790894606914 0.237946552119807 -0.8730724242027839 -0.8246050613472399 12.324818552130026 1.1185188756513065 -0.09085659293158999 1.0404439793236822 0.22839645751228385 -0.4108533449081434 -12.36744545331579 0.13025058068870884 -0.6772167680903812 1.0031551254041418 -12.604359932794567 68.29047552730776 14.683851972551714 5.762081112516118 29.11197868939975 6.858228827736644 84.49277333977773 24.006224826255984 -0.34805892245458436 -5.725448260714219 4.568877617699342 -0.12291152641719118 -1.5733080384648943 0.009025756778328073 0.03772262813373184 -56.27886100104198 0.04666254371466337 -0.005544489414694339 -56.19848933978626 -38.79059306848766 0.0018413697686870286 -0.026934354923081667 0.038336549871099516 -0.006301280428051832 -0.013803251282331211 0.036334972669797835 -0.033597270202072135 -0.012430806978048534 -36.65820508407023 0.0427274984909779 0.0004951492450455734 -0.02959235498208385 -0.014696023101577964 0.005307318358641741 -0.022748450917769277 0.019715135970235092 -0.022968892277423388 -19.725966058742177 -0.0043727163955771635 0.020983454118718537 0.007017515799160487 0.04221025267117581 0.0021752887036636894 -0.04596458078966253 0.004446036663163432 -0.0020137059046028494 24.054848125279022 -0.010107516487248365 -0.03856038594696999 28.902069771933274 -0.008371094076571743 -0.021480493586333572 28.8889480932385 0.043697519311475426 -0.04721300758777718 4.23852589958648 1.3884802969944976 12.821303222493926 -60.21784542715396 24.859667205880562 -21.60440108901788 2.4252566939296583 13.7571504156836 -67.09195232299253 -11.829755688932298 8.615522476085125 -5.996516699659039 -0.43840561429252556 0.04660781150339688 -8.148654831738906 0.03336674690040525 -0.04357009384994125 44.605910143365364 -0.033136353521311675 -0.005660812136492734 44.5393410334725 12.43743536421945 0.022936096390520962 -0.018767487120796504 -0.021991491331937285 0.007796246593698061 -0.02828535249513917 -0.03188515992181882 -0.02880614689858172 -0.02232253942216502 11.087980662541858 -0.003280966283032411 -0.023296116959104003 -0.0010166813886267373 0.03634682073443459 0.008380104885720947 -0.005398736989080438 0.029570895890928827 0.04475893150832999 4.748738604915903 0.0010778284250630447 -0.046464891810021454 -0.03670943002110823 0.01200613200776257 0.03725701914817026 -0.011813855858127026 0.004353828251862976 0.04080188211763575 -5.584523817663241 -0.009804563798156944 -0.020678415424505905 -6.737613028122617 0.007861451344470725 0.0022621678752278622 -6.756483464841775 -0.005341050674069889 -0.020535954634926794 -0.017830779457315853 0.013320825824786518 -0.02015092501736681 8.072855568764835 3.4794554354530693 -19.218871846996176 -0.029437719982024248 10.38599938554142 0.009130387315460696 -5.5901476525926785 -15.679846297460438 3.1768901095549595 -0.010153248535153188 -0.04353239037729524 -0.02572363907266951 0.0044348935145649615 4.712516737141888 0.0167187871014483 12.495014586827079 -8.262055604787154 6.904729639957762 -0.007190836491803126 46.36210744709912 0.009734115598222922 -4.307238678129687 -14.73570896252239 -3.7995496683374532 -0.007175480659283359 0.006656434421213623 -0.049772907399812105 0.0027577323553034058 -10.742004355477265 -0.015692174991349585 
-0.00882445555649581 -0.011627993809813837 0.018834048712215973 0.0169259062845509 0.04252821837003662 -0.039051391122367836 -4.702348505949591 0.8666185237178625 -0.4607316974067841 -0.9508658475816278 3.3609445603872943 0.42416574707250254 -1.1713388157775868 -1.8141950607684474 -1.3292626883468883 -0.4955103447322625 0.28750755640534803 -0.9221607601737485 -0.7312916330660769 12.159217351803997 0.9225575241012459 -0.01629947541539522 0.9677963964108286 -0.059908160317254766 -0.3987317024687178 -12.4820649956354 0.0591167325203085 -0.5771069758170716 1.0380418141992485 -12.60640416738413 68.26089809921037 14.899463094284249 5.431152859105938 29.421205594161943 7.196870467556822 83.27982314344284 24.220663562039956 -0.2722682600997546 -5.728206564959193 4.5296383088552465 -0.143112314721494 -1.562340615169229 0.045892260044227196 0.017013431687644385 -56.20436211223023 -0.021994088306074758 -0.020855476918631974 -56.22934107585032 -38.779663489998015 -0.0028243277671082525 -0.024780837632753853 0.01584483828770441 0.02748420973911169 0.027939978259642125 3.246274504396965e-05 0.027478728628227245 0.023684910342211166 -36.66657193856605 0.02930280997549848 -0.02669662444144306 -0.03434462488849836 0.0034202006623376227 0.04186764964114961 -0.040735145331447654 0.031278314918340114 -0.022928876734597068 -19.717295103518477 0.019994160467319017 0.007852804381034143 -0.009301072372440117 0.007363367265950434 0.008462772463613833 0.00857229778725326 0.01985703986992265 -0.006944558684622042 24.0347633990391 0.02779688018591893 0.03526562193422111 28.862444577275117 0.049188454210583744 0.00814421905009071 28.86197458009153 0.02266581656779405 0.031032971582505602 4.104994408847113 1.3406529378098948 12.702657115433857 -60.215155502070324 25.50604945050126 -21.497118641733344 2.2553497899232586 13.405854697301315 -66.16560207152814 -11.831854950547537 8.584489279376095 -6.004282030549438 -0.5013093122340866 0.03429675200128495 -8.162730928148592 0.027157346870746835 -0.049028044599044446 44.604629207766465 -0.014781772350492927 -0.048582674044762034 44.61595436473932 12.493280491090907 0.01309005198388506 -0.03605802126484669 0.0003365980479929086 -0.025091531644780705 -0.01232871904920269 -0.016927134733741276 -0.048254336345836715 -0.013615212536412557 11.065786887156099 0.04418029281543977 0.023804440349579018 0.015287573253963132 0.044412149745359744 0.038416449242744885 0.039764280307655324 0.004276414038640168 0.011884994666644035 4.743872859378799 -0.04868591396051735 0.02814793879812109 -0.007171910457194536 0.02481735449557059 -0.026560176000993068 -0.04753665427542183 -0.0012202451372484015 0.026992194429290815 -5.615890509221768 -0.021824352177457842 0.04420061432145175 -6.757423704889935 0.024895287474845408 0.024687083357493447 -6.682106869112996 0.0187114421527188 -0.04174192528077096 0.022220652606362905 -0.020698677473565765 0.0038769525948878013 8.055353438388307 3.5122030160379363 -19.216398349810262 0.023245493829204274 10.373986290198914 -0.010106505363598497 -5.651146438237178 -15.675902275538453 3.172699684398217 0.02268598014428949 -0.010129507403011401 -0.0036190388508406004 0.015991443233644185 4.73059473900024 0.014148984502782706 12.479837894127964 -8.252118347515163 6.927377028649784 -0.04861029899436506 46.385577729168965 0.029109787612310423 -4.30405254610434 -14.743081580722045 -3.7853692478947223 -0.008079813412061335 0.036809108692507954 0.01591576014852483 0.03074830245372801 -10.699784397933348 -0.00012689717449842033 
-0.04855408716021617 0.0410258022352074 0.026922516501934442 -0.014669277578624258 -0.0279184718190654 0.0014760535562604897 -4.5287163451051065 0.7962297979321782 -0.46105182050292065 -0.965061833998097 3.3433146640686604 0.401929112759929 -1.1998297046267277 -1.8070954057995459 -1.4238741920233564 -0.43031169833703026 0.2925431841331758 -0.88974329304275 -0.6893261817125296 12.191387920022885 0.8049438444509992 -0.014992038094953884 0.9783970626181449 -0.14093755860366255 -0.38955243343078383 -12.406207314719927 0.0999522017981293 -0.6477714469105853 1.058038871247306 -12.638655285759217 68.28859894867709 14.937558292210747 5.162915370963604 30.084138617274398 7.510560176798132 82.29486520531105 24.402301784378494 -0.2678363050390913 -5.643028238747961 4.562230717174908 -0.11257810336959931 -1.606709730492448 -0.030419317721234376 -0.0250148894961568 -56.24938119668835 -0.048804382304704165 -0.0044197520020674745 -56.22670429237831 -38.80603757839948 -0.02141287440659758 -0.0017480455844727076 -0.034154307882868024 -0.009886789505520797 -0.04432919541855126 -0.022805883656779116 -0.02104571036781799 0.027918599011422986 -36.73960378579715 0.027171389692582443 -0.038159359158412835 0.021270165770130845 -0.0008997814620822688 -0.012939110742320079 -0.005917918089484708 0.038850733913533775 -0.017978519917074207 -19.78109448314586 0.00037268058483370654 0.023416924259883197 0.014848780715018528 0.04978810022079789 -0.011806314749717613 0.0032169238926347166 0.007921128554484427 -0.012377420615719309 24.055219363730796 -0.019178595526076828 0.04384699596438955 28.86623627910617 0.014817672527016849 0.008713031053039765 28.848839307226648 -0.04904205078711528 0.020252856354180386 4.136689809289485 1.3522075295904208 12.508469171886661 -60.1987658528678 25.89848534927676 -21.40280225628153 1.661712105635355 13.038997196560679 -65.45397931975536 -11.775646534822123 8.5938503690352 -5.942885849192663 -0.4672195267074109 0.03162769662976949 -8.107939460219722 0.010822510027108934 -0.0054043003909107845 44.58345483563743 0.003005848504474734 0.01842649983494117 44.599549817781515 12.466470959646552 -0.03843524530883083 0.044844532101071706 0.015576791882072423 -0.005169012384795679 0.00519725102066553 -0.014492219352388046 0.01711139863085719 -0.015993814688395506 11.10643101122446 -0.0017500972360918574 0.014443606160544948 0.04790248529225269 -0.022491690877761747 0.0005924951011422266 0.022254735409773366 -0.04826987453675922 -0.023216403396831262 4.772428268116433 0.0039261052406178625 -0.021418673653251796 -0.020549666276492917 0.04328698700646933 0.006184725860496739 0.03809748929320576 -0.004877295268199136 -0.008195222773596533 -5.580505488967629 -0.04407775383908076 -0.006997707468022143 -6.732579533493732 -0.026406658225419485 0.03933193800859891 -6.750459657464747 -0.007519789952464243 0.04404134181095123 0.02227227718219852 -0.0027617794468229205 -0.03314207319394714 8.010795988666223 3.524230773916678 -19.210904249627678 0.0015294597056651187 10.356445098030102 0.030869383190289014 -5.5969205707734755 -15.654253397709555 3.24218966250862 -0.005702743953216045 0.0067695054916405584 0.015690637107741795 0.01059118903153957 4.722703196753156 -0.014615658744546683 12.481310668946975 -8.194575921372762 6.88224422824303 -0.0075078543394085226 46.384872199949776 -0.037507831571092144 -4.328723501952173 -14.747892419140552 -3.8571585935371853 0.007112589399243506 0.04224915913221178 0.03076149052647122 -0.008303224415923061 -10.761129526296235 0.01690720109860355 
0.03840385917193608 0.00010545379574777896 0.03773029225255539 0.00679568242100712 0.003563915260587523 0.03017318390217827 -4.4496225351394285 0.6065641904828132 -0.4911219842040689 -0.9436811907627741 3.304679235853101 0.33321637168663115 -1.1781666778787834 -1.8856053549137701 -1.5716491562749888 -0.4494505639300021 0.30796686783004323 -0.947063938379487 -0.6441083254378677 12.244572844858633 0.7242163575687574 0.028459576611688697 1.0092531182057025 -0.14079049429307758 -0.3334499552449592 -12.388725618039476 0.0722243893429525 -0.7156437768566521 1.071638586364164 -12.664711333526792 68.49621246544585 14.85078577294905 5.08317361157721 30.895879779403018 7.677734440711119 81.4352135552043 24.53649860487521 -0.2619413311179806 -5.578447392137787 4.480083283905234 -0.15931440659541696 -1.5760828564879197 -0.03717300185145876 0.010742072659223762 -56.21516182844678 -0.021410257463686553 -0.01681269292169819 -56.28149833276786 -38.770203090090995 0.006770437446205554 -0.014365247368606365 -0.014901762784353581 0.004622235077502205 -0.009880938878491168 -0.039448636295684986 -0.012557854637118077 -0.03636584887365859 -36.66634885381837 0.004492816273811834 -0.02393453075953827 -0.01574493033388354 -0.04704788419799317 0.019361352704988944 -0.03151543077235594 -0.002111344357678682 -0.03229782826235093 -19.76024890663569 0.048274430341976766 -0.01212825489359112 0.042123383983437346 -0.013418324797094658 -0.005018010220470419 -0.02769361572877444 0.03317260273768365 0.014530797682384815 24.043472252359003 0.03496598169163916 -0.021902650725800145 28.908602705016015 -0.008501067153011965 0.0434451548604024 28.823640728276857 0.004678869017591119 -0.006873421208911672 4.231765714651153 1.3450548875774688 12.462614048295872 -60.31679963482881 26.075950306473967 -21.350754962249066 0.825910596616663 12.512697473043627 -64.86267927249942 -11.738032784192399 8.698199438172773 -6.018905891170248 -0.4519687729632339 0.02114480758409811 -8.097867435680401 -0.01734646427761528 -0.037533580876302416 44.55121365278857 0.026210008166278057 0.0013277031133989148 44.56522144322233 12.495633319183229 -0.032972416751778644 -0.006614737853049053 0.03440264444812955 -0.002372204387598205 0.028563218078278517 0.02938250081920581 0.008611189433733351 0.04327583415367554 11.113173542962727 -0.016178528399079958 -0.021104987729452594 0.03398054677341134 0.02016079744884077 0.03500502839446589 -0.024971149719371255 -0.03050431630311212 0.03378030863139524 4.810596758556285 0.02755339518495347 0.04910936566969827 -0.032021036392089246 -0.0325728454183569 -0.03536400316096054 -0.0016823187200631484 0.011800427034814343 0.03728000689841525 -5.622952977324212 0.009301045573581624 -0.01631131201229007 -6.7279655601986565 0.04754012263451047 -0.035487164127588226 -6.67921449039769 0.034213448717834105 0.03842037008017711 0.022938562493567998 0.012639805059412316 0.03219858111825788 8.07484227798179 3.521443698540554 -19.22250959129268 0.010196164835772405 10.437893975681204 0.015087143106404835 -5.623509584662642 -15.67030485059707 3.15346444229109 -0.006872614837489831 -0.024391538827939492 0.043036447384467845 -0.04877920265917631 4.676897697153153 -0.029087724225432047 12.439713860263879 -8.189527263350852 6.865935630301532 -0.015849361331689196 46.36085580939289 -0.004035974305799111 -4.340780611744042 -14.746395513251048 -3.8363938352042255 -0.011226323528145288 -0.03794653237295297 0.0011486440169718838 0.039728377084843516 -10.711917033729499 -0.01424178674382835 
